<svg xmlns="http://www.w3.org/2000/svg" viewBox="0 0 1600 1000" preserveAspectRatio="xMidYMid slice">
  <defs>
    <linearGradient id="bg" x1="0" y1="0" x2="1" y2="1"><stop offset="0" stop-color="#0d2a52"/><stop offset="1" stop-color="#060b18"/></linearGradient>
    <radialGradient id="warm" cx="0.3" cy="0.3" r="0.6"><stop offset="0" stop-color="#60a5fa" stop-opacity=".45"/><stop offset="1" stop-color="#60a5fa" stop-opacity="0"/></radialGradient>
    <linearGradient id="person" x1="0" y1="0" x2="0" y2="1"><stop offset="0" stop-color="#3b82f6" stop-opacity=".85"/><stop offset="1" stop-color="#1e3a8a" stop-opacity=".9"/></linearGradient>
  </defs>
  <rect width="1600" height="1000" fill="url(#bg)"/>
  <rect width="1600" height="1000" fill="url(#warm)"/>
  <g stroke="#93c5fd" stroke-opacity=".12">
    <path d="M0 200h1600M0 400h1600M0 600h1600M0 800h1600"/><path d="M200 0v1000M600 0v1000M1000 0v1000M1400 0v1000"/>
  </g>
  <rect x="120" y="120" width="520" height="300" rx="14" fill="#0b1830" stroke="#60a5fa" stroke-opacity=".5"/>
  <path d="M170 360l90-90 80 50 110-120 100 60" stroke="#22d3ee" stroke-width="5" fill="none" stroke-linecap="round"/>
  <rect x="170" y="170" width="140" height="14" rx="7" fill="#60a5fa" opacity=".6"/>
  <rect x="170" y="196" width="220" height="10" rx="5" fill="#93c5fd" opacity=".35"/>
  <ellipse cx="800" cy="720" rx="520" ry="150" fill="#0a1a38" stroke="#60a5fa" stroke-opacity=".5"/>
  <g fill="url(#person)">
    <circle cx="420" cy="500" r="48"/><rect x="360" y="556" width="120" height="150" rx="50"/>
    <circle cx="640" cy="470" r="52"/><rect x="576" y="530" width="128" height="170" rx="54"/>
    <circle cx="880" cy="470" r="52"/><rect x="816" y="530" width="128" height="170" rx="54"/>
    <circle cx="1100" cy="500" r="48"/><rect x="1040" y="556" width="120" height="150" rx="50"/>
    <circle cx="1300" cy="540" r="44"/><rect x="1246" y="592" width="108" height="130" rx="46"/>
  </g>
  <g fill="#22d3ee" opacity=".8"><circle cx="760" cy="700" r="8"/><circle cx="860" cy="712" r="6"/><circle cx="700" cy="720" r="5"/></g>
</svg>
